{"asset":{"version":"2.0","generator":"babylon.js glTF exporter for Autodesk MAYA 2022 v20211115.1"},"scene":0,"scenes":[{"nodes":[0]}],"nodes":[{"mesh":0,"translation":[0.0,0.00592559669,0.0],"name":"pCube1"}],"meshes":[{"primitives":[{"attributes":{"POSITION":1,"TANGENT":2,"NORMAL":3,"TEXCOORD_0":4},"indices":0,"material":0}],"name":"pCube1"}],"accessors":[{"bufferView":0,"componentType":5123,"count":900,"type":"SCALAR","name":"accessorIndices"},{"bufferView":1,"componentType":5126,"count":186,"max":[0.005,0.005,0.005],"min":[-0.005,-0.005,-0.005],"type":"VEC3","name":"accessorPositions"},{"bufferView":2,"componentType":5126,"count":186,"type":"VEC4","name":"accessorTangents"},{"bufferView":1,"byteOffset":2232,"componentType":5126,"count":186,"type":"VEC3","name":"accessorNormals"},{"bufferView":3,"componentType":5126,"count":186,"type":"VEC2","name":"accessorUVs"}],"bufferViews":[{"buffer":0,"byteLength":1800,"name":"bufferViewScalar"},{"buffer":0,"byteOffset":1800,"byteLength":4464,"byteStride":12,"name":"bufferViewFloatVec3"},{"buffer":0,"byteOffset":6264,"byteLength":2976,"byteStride":16,"name":"bufferViewFloatVec4"},{"buffer":0,"byteOffset":9240,"byteLength":1488,"byteStride":8,"name":"bufferViewFloatVec2"}],"buffers":[{"uri":"cubetest.bin","byteLength":10728}],"materials":[{"pbrMetallicRoughness":{"baseColorTexture":{"index":1},"metallicFactor":0.0,"roughnessFactor":0.450053632},"normalTexture":{"index":0},"name":"boxmat"}],"textures":[{"sampler":0,"source":0,"name":"lambert1_Normal.png"},{"sampler":0,"source":1,"name":"lambert1_Base_color.png"}],"images":[{"uri":"lambert1_Normal.png"},{"uri":"lambert1_Base_color.png"}],"samplers":[{"magFilter":9729,"minFilter":9987}]}