{"asset":{"version":"2.0","generator":"babylon.js glTF exporter for Autodesk MAYA 2022 v20211115.1"},"scene":0,"scenes":[{"nodes":[0,4,5]}],"nodes":[{"children":[1,2,3],"translation":[-0.0493025333,0.506199241,-0.108265571],"rotation":[-0.707106769,0.0,0.0,0.707106769],"scale":[5.816663,5.816663,5.816663],"name":"Mesh"},{"mesh":0,"translation":[-0.227414921,-1.043301,-1.98314345],"rotation":[0.0126302438,-0.00464111846,-0.5906219,0.806836247],"scale":[5.960079,5.960079,5.960079],"name":"polySurface1"},{"mesh":1,"translation":[0.004024813,-0.8014872,-1.77126825],"scale":[7.91928768,7.91928768,7.91928768],"name":"polySurface3"},{"mesh":2,"translation":[-0.0207868088,-0.906537235,-1.981852],"rotation":[-0.8822904,0.4702023,0.0115338936,0.0184507],"scale":[5.960079,5.960079,-5.960079],"name":"polySurface4"},{"mesh":3,"translation":[-2.45938063,4.88219357,-1.02495229],"rotation":[-0.101220749,0.07636513,0.05882705,0.9901829],"name":"brutushead1:brutushead"},{"mesh":4,"translation":[-0.526070952,-0.5198373,-1.121243],"rotation":[-0.0575669669,0.000155805377,0.0269373525,0.997978151],"name":"polySurface18"}],"meshes":[{"primitives":[{"attributes":{"POSITION":1,"TANGENT":2,"NORMAL":3,"TEXCOORD_0":4},"indices":0,"material":0}],"name":"polySurface1"},{"primitives":[{"attributes":{"POSITION":6,"TANGENT":7,"NORMAL":8,"TEXCOORD_0":9},"indices":5,"material":1}],"name":"polySurface3"},{"primitives":[{"attributes":{"POSITION":11,"TANGENT":12,"NORMAL":13,"TEXCOORD_0":14},"indices":10,"material":0}],"name":"polySurface4"},{"primitives":[{"attributes":{"POSITION":16,"TANGENT":17,"NORMAL":18,"TEXCOORD_0":19},"indices":15,"material":2}],"name":"brutushead1:brutushead"},{"primitives":[{"attributes":{"POSITION":21,"TANGENT":22,"NORMAL":23,"TEXCOORD_0":24},"indices":20,"material":3}],"name":"polySurface18"}],"accessors":[{"bufferView":0,"componentType":5125,"count":103572,"type":"SCALAR","name":"accessorIndices"},{"bufferView":1,"componentType":5126,"count":98380,"max":[0.03415925,-0.00220578,0.0475848839],"min":[-0.055963058,-0.04223333,-0.0009586638],"type":"VEC3","name":"accessorPositions"},{"bufferView":2,"componentType":5126,"count":98380,"type":"VEC4","name":"accessorTangents"},{"bufferView":1,"byteOffset":1180560,"componentType":5126,"count":98380,"type":"VEC3","name":"accessorNormals"},{"bufferView":3,"componentType":5126,"count":98380,"type":"VEC2","name":"accessorUVs"},{"bufferView":0,"byteOffset":414288,"componentType":5123,"count":3,"type":"SCALAR","name":"accessorIndices"},{"bufferView":1,"byteOffset":2361120,"componentType":5126,"count":3,"max":[-0.0302887857,-0.0457026549,0.0005955766],"min":[-0.0311757289,-0.0458577871,0.000229546131],"type":"VEC3","name":"accessorPositions"},{"bufferView":2,"byteOffset":1574080,"componentType":5126,"count":3,"type":"VEC4","name":"accessorTangents"},{"bufferView":1,"byteOffset":2361156,"componentType":5126,"count":3,"type":"VEC3","name":"accessorNormals"},{"bufferView":3,"byteOffset":787040,"componentType":5126,"count":3,"type":"VEC2","name":"accessorUVs"},{"bufferView":0,"byteOffset":414296,"componentType":5125,"count":103572,"type":"SCALAR","name":"accessorIndices"},{"bufferView":1,"byteOffset":2361192,"componentType":5126,"count":98380,"max":[0.0363622047,-0.002132578,0.0475913435],"min":[-0.06011613,-0.0426360369,-0.0009824293],"type":"VEC3","name":"accessorPositions"},{"bufferView":2,"byteOffset":1574128,"componentType":5126,"count":98380,"type":"VEC4","name":"accessorTangents"},{"bufferView":1,"byteOffset":3541752,"componentType":5126,"count":98380,"type":"VEC3","name":"accessorNormals"},{"bufferView":3,"byteOffset":787064,"componentType":5126,"count":98380,"type":"VEC2","name":"accessorUVs"},{"bufferView":0,"byteOffset":828584,"componentType":5123,"count":116904,"type":"SCALAR","name":"accessorIndices"},{"bufferView":1,"byteOffset":4722312,"componentType":5126,"count":26064,"max":[3.71669436,2.98388982,9.571275],"min":[-2.23710442,-2.26607943,3.83159137],"type":"VEC3","name":"accessorPositions"},{"bufferView":2,"byteOffset":3148208,"componentType":5126,"count":26064,"type":"VEC4","name":"accessorTangents"},{"bufferView":1,"byteOffset":5035080,"componentType":5126,"count":26064,"type":"VEC3","name":"accessorNormals"},{"bufferView":3,"byteOffset":1574104,"componentType":5126,"count":26064,"type":"VEC2","name":"accessorUVs"},{"bufferView":0,"byteOffset":1062392,"componentType":5125,"count":3057714,"type":"SCALAR","name":"accessorIndices"},{"bufferView":1,"byteOffset":5347848,"componentType":5126,"count":585287,"max":[5.91876,4.36311054,10.2010517],"min":[-6.42124,-10.16593,3.07546139],"type":"VEC3","name":"accessorPositions"},{"bufferView":2,"byteOffset":3565232,"componentType":5126,"count":585287,"type":"VEC4","name":"accessorTangents"},{"bufferView":1,"byteOffset":12371292,"componentType":5126,"count":585287,"type":"VEC3","name":"accessorNormals"},{"bufferView":3,"byteOffset":1782616,"componentType":5126,"count":585287,"type":"VEC2","name":"accessorUVs"}],"bufferViews":[{"buffer":0,"byteLength":13293248,"name":"bufferViewScalar"},{"buffer":0,"byteOffset":13293248,"byteLength":19394736,"byteStride":12,"name":"bufferViewFloatVec3"},{"buffer":0,"byteOffset":32687984,"byteLength":12929824,"byteStride":16,"name":"bufferViewFloatVec4"},{"buffer":0,"byteOffset":45617808,"byteLength":6464912,"byteStride":8,"name":"bufferViewFloatVec2"}],"buffers":[{"uri":"GLTFBrutus.bin","byteLength":52082720}],"materials":[{"pbrMetallicRoughness":{"baseColorFactor":[0.0454545468,0.0454545468,0.0454545468,1.0],"metallicFactor":0.0,"roughnessFactor":0.450053632},"name":"Black"},{"pbrMetallicRoughness":{"metallicFactor":0.0,"roughnessFactor":0.4500535},"name":"Texture_3"},{"pbrMetallicRoughness":{"baseColorTexture":{"index":0},"metallicFactor":0.0,"roughnessFactor":0.450053632},"name":"Brutus_Head"},{"pbrMetallicRoughness":{"baseColorTexture":{"index":1},"metallicFactor":0.0,"roughnessFactor":0.450053632},"name":"lambert2"}],"textures":[{"sampler":0,"source":0,"name":"brutushead.png"},{"sampler":0,"source":1,"name":"brutusbody.png"}],"images":[{"uri":"brutushead.png"},{"uri":"brutusbody.png"}],"samplers":[{"magFilter":9729,"minFilter":9987}]}